<svg id="Layer_1" data-name="Layer 1" xmlns="http://www.w3.org/2000/svg" viewBox="0 0 135.5 39.33"><defs><style>.cls-1{fill:#dbd3d7;stroke:#293a43;stroke-miterlimit:10;}.cls-2{font-size:33.25px;}.cls-2,.cls-3{fill:#293a43;font-family:Arial;}.cls-3{font-size:29.41px;}.cls-4{fill:#d07b64;}</style></defs><title>anivash-logo</title><path id="fa" class="cls-1" d="M202.06,243.58l11.54-20.93a0.66,0.66,0,0,1,1.22,0l11.54,20.93a1,1,0,0,1-.61,1.52H202.67A1,1,0,0,1,202.06,243.58Z" transform="translate(-201.42 -216.94)"/><text class="cls-2" transform="translate(25.08 28.54) scale(0.99 1)">N</text><path id="i" class="cls-1" d="M250.31,243.58l11.54-20.93a0.66,0.66,0,0,1,1.22,0l11.54,20.93a1,1,0,0,1-.61,1.52H250.92A1,1,0,0,1,250.31,243.58Z" transform="translate(-201.42 -216.94)"/><path id="v" class="cls-1" d="M291.35,223.84L279.7,244.72a0.66,0.66,0,0,1-1.22,0l-11.44-21a1,1,0,0,1,.62-1.51l23.09,0.11A1,1,0,0,1,291.35,223.84Z" transform="translate(-201.42 -216.94)"/><path id="sa" class="cls-1" d="M283.34,243.58l11.54-20.93a0.66,0.66,0,0,1,1.22,0l11.54,20.93a1,1,0,0,1-.61,1.52H283.94A1,1,0,0,1,283.34,243.58Z" transform="translate(-201.42 -216.94)"/><text class="cls-3" transform="translate(106.36 28.55) scale(0.94 1)">sh</text><circle id="fa_round" class="cls-4" cx="5.06" cy="25.14" r="2.06"/><circle id="i_round" class="cls-4" cx="61.04" cy="11.19" r="2.06"/><circle id="sa_round" class="cls-4" cx="90.07" cy="25.08" r="2.06"/><circle id="v_round" class="cls-4" cx="84.59" cy="13.25" r="2.06"/></svg>