<?xml version="1.0" encoding="utf-8"?><svg xmlns="http://www.w3.org/2000/svg" xmlns:xlink="http://www.w3.org/1999/xlink"><symbol viewBox="0 0 90 90" id="github"><path d="M65.709 10.5c1.17 2.657 1.928 7.07.797 10.301 4.625 3.949 6.215 13.549 3.982 21.394 6.592.503 14.444-.242 19.512 1.781-4.738-.609-11.209-1.804-17.32-1.388-1.158.079-2.873-.044-2.789 1.585 7.074.555 14.104 1.16 19.912 2.973-5.761-.941-12.754-2.375-19.912-2.574-2.957 5.835-8.908 8.703-17.123 9.307.883 1.922 2.574 2.653 2.987 5.744.616 4.618-.964 11.381.595 14.459.748 1.475 1.967 1.514 2.789 2.775-2.012 2.381-7-.268-7.568-2.775-.973-4.295 1.482-10.953-1.192-13.865.188 4.685-1.108 11.264.199 15.449.515 1.646 2.002 2.281 1.593 3.766-9.352.949-5.443-12.104-6.972-19.81-1.411.101-.791 2.113-.796 2.972-.04 7.524 1.54 17.844-6.57 16.838-.237-1.582 1.088-2.119 1.593-3.563 1.479-4.233-.277-10.542.401-15.651-3.095 2.334.325 10.48-1.593 14.657-1.105 2.404-4.666 3.45-7.367 2.377.352-1.79 2.2-1.501 2.984-3.169 1.096-2.324.008-5.674.399-9.111-5.729 1.144-10.173-.166-12.348-3.764-.973-1.615-1.214-3.52-2.39-4.951-1.17-1.432-3.04-1.625-3.582-3.563 7.095-1.708 7.367 7.302 13.739 7.524 1.954.071 2.97-.563 4.778-.988.506-2.272 1.589-3.967 3.186-5.153-7.929-1.085-14.477-3.554-17.522-9.504-7.208.354-13.804 1.317-19.913 2.771 5.545-2.014 12.384-2.736 19.715-2.973-.432-2.596-4.219-1.882-6.57-1.782-4.37.192-9.87.735-13.343 1.387 5.034-1.795 12.098-1.571 18.918-1.585-2.086-6.54-1.363-16.929 3.186-20.798-1.289-3.249-.889-8.563.796-11.093 5.079.228 8.159 2.443 11.35 4.557 3.957-1.125 8.118-1.685 13.54-1.387 2.28.126 4.651 1.151 6.369.989 1.685-.158 3.542-2.049 5.178-2.771 2.131-.941 3.934-1.3 6.372-1.388z"/></symbol><symbol viewBox="0 0 430.117 430.117" id="linkedin"><path d="M430.117 261.543V420.56h-92.188V272.193c0-37.271-13.334-62.707-46.703-62.707-25.473 0-40.632 17.142-47.301 33.724-2.432 5.928-3.058 14.179-3.058 22.477V420.56h-92.219s1.242-251.285 0-277.32h92.21v39.309c-.187.294-.43.611-.606.896h.606v-.896c12.251-18.869 34.13-45.824 83.102-45.824 60.673-.001 106.157 39.636 106.157 124.818zM52.183 9.558C20.635 9.558 0 30.251 0 57.463c0 26.619 20.038 47.94 50.959 47.94h.616c32.159 0 52.159-21.317 52.159-47.94-.606-27.212-20-47.905-51.551-47.905zM5.477 420.56h92.184V143.24H5.477v277.32z"/></symbol><symbol viewBox="0 0 430.117 430.117" id="twitter"><path d="M381.384 198.639c24.157-1.993 40.543-12.975 46.849-27.876-8.714 5.353-35.764 11.189-50.703 5.631-.732-3.51-1.55-6.844-2.353-9.854-11.383-41.798-50.357-75.472-91.194-71.404a173.448 173.448 0 0 1 9.996-3.691c4.495-1.61 30.868-5.901 26.715-15.21-3.5-8.188-35.722 6.188-41.789 8.067 8.009-3.012 21.254-8.193 22.673-17.396-12.27 1.683-24.315 7.484-33.622 15.919 3.36-3.617 5.909-8.025 6.45-12.769C241.68 90.963 222.563 133.113 207.092 174c-12.148-11.773-22.915-21.044-32.574-26.192-27.097-14.531-59.496-29.692-110.355-48.572-1.561 16.827 8.322 39.201 36.8 54.08-6.17-.826-17.453 1.017-26.477 3.178 3.675 19.277 15.677 35.159 48.169 42.839-14.849.98-22.523 4.359-29.478 11.642 6.763 13.407 23.266 29.186 52.953 25.947-33.006 14.226-13.458 40.571 13.399 36.642C113.713 320.887 41.479 317.409 0 277.828c108.299 147.572 343.716 87.274 378.799-54.866 26.285.224 41.737-9.105 51.318-19.39-15.144 2.57-37.094-.086-48.733-4.933z"/></symbol></svg>